    <svg xmlns="http://www.w3.org/2000/svg" width="927" height="786">
      <path
        fill="#3F3D56"
        d="M1030.887 386.06c-46.34 59.26-133.78 72.83-206.13 52.19a335.508 335.508 0 01-68.1-28.35c-12.54-6.81-24.78-14.28-36.77-22.24-2.95-1.95-5.9-3.93-8.82-5.95a497.44 497.44 0 01-5.95-4.13c-24.76-17.42-48.55-36.53-71.94-55.53-58.39-47.43-118.38-96.32-190.12-118.95-14.78-4.66-33.9-6.84-43.04 5.68-7.93 10.87-3.09 26.26 3.62 37.92 24.89 43.19 70.07 70.46 115.29 91.43 45.22 20.97 93.12 37.96 132.43 68.62 39.31 30.66 69.32 79.39 61.28 128.58-6.93 42.39-41.54 76.83-81.78 91.84-40.24 15-85.12 12.91-126.95 3.17-41.83-9.75-81.54-26.76-121.91-41.42-24.34-8.85-56.16-14.97-72.31 5.28-13.64 17.11-5.8 44.1 10.81 58.34 16.61 14.24 39.09 19.01 60.54 23.29 66.6 13.3 133.2 26.596 199.8 39.89 20.43 4.07 41.34 8.33 59.14 19.17 17.8 10.83 32.16 29.75 31.65 50.58-.51 20.53-15.54 38.67-33.96 47.76-18.41 9.08-39.67 10.48-60.18 9.5-76.86-3.68-297.21-125.79-350.06-141.4-33.96-10.02-71.09-24.74-85.41-57.12-17.83-40.31 11.51-89.08 51.56-107.49 40.04-18.42 86.46-14.34 130.1-8.14 43.64 6.2 88.72 14.09 131.2 2.31 42.48-11.78 81.4-50.18 77.21-94.06-3.65-38.18-38.04-66.95-74.23-79.63-28.33-9.93-58.47-12.63-88.23-17.1-8.26-1.23-16.49-2.61-24.64-4.31a307.085 307.085 0 01-60.75-19.5 312.923 312.923 0 01-58.04-33.31 305.264 305.264 0 01-40.32-35.01c-1.89-1.96-3.76-3.964-5.61-6.01-1.76-1.96-3.5-3.96-5.2-6-22.12-26.43-38.46-58.98-33.56-92.52 4.89-33.45 30.96-61.3 62-74.68 17.94-7.73 37.29-11.19 56.88-11.69a233.793 233.793 0 0142.78 3.08c65.41 10.46 125.35 42.24 181.96 76.65 56.6 34.41 111.76 72.18 173.29 96.71 61.53 24.54 131.57 34.93 193.99 12.74 62.42-22.18 113.7-82.7 110.65-148.87 41.4 35.65 76.58 80.46 92.16 132.82 15.58 52.36 9.32 112.82-24.33 155.86z"
        transform="scale(1.0004 1) translate(-136.684 -57.003)"
      ></path>
      <path
        fill="#946B2D"
        d="M603.188 253.394c0 2.01-.71 3.725-2.131 5.146-1.421 1.42-3.137 2.131-5.146 2.131-2.01 0-3.725-.71-5.146-2.131-1.422-1.421-2.132-3.137-2.132-5.146 0-2.01.71-3.725 2.132-5.146 1.42-1.421 3.136-2.132 5.146-2.132s3.725.71 5.146 2.132c1.42 1.42 2.131 3.136 2.131 5.146 0 .084-.001.17-.004.254"
        transform="scale(1.0004 1)"
      ></path>
      <path
        fill="#FF6584"
        d="M864.163 157.394c0 3.107-1.099 5.759-3.296 7.956s-4.85 3.296-7.956 3.296c-3.107 0-5.76-1.099-7.957-3.296s-3.295-4.85-3.295-7.956c0-3.107 1.098-5.76 3.295-7.957 2.198-2.197 4.85-3.295 7.957-3.295s5.759 1.098 7.956 3.295 3.296 4.85 3.296 7.957c0 .13-.003.262-.007.392M119.068 511.394c0 1.148-.406 2.128-1.218 2.94-.811.811-1.791 1.217-2.94 1.217-1.147 0-2.127-.406-2.94-1.218-.81-.811-1.217-1.791-1.217-2.94 0-1.147.406-2.127 1.218-2.939.812-.812 1.792-1.218 2.94-1.218s2.128.406 2.94 1.218c.811.812 1.217 1.792 1.217 2.94 0 .048 0 .096-.002.145"
        transform="scale(1.0004 1)"
      ></path>
      <path
        fill="#FF6584"
        d="M370.927 329.4c.002 3.606-.434 7.199-1.3 10.7-8.26-1.23-16.49-2.61-24.64-4.31a307.086 307.086 0 01-60.75-19.5c6.486-20.943 27.304-34 48.982-30.722 21.677 3.278 37.704 21.908 37.708 43.831z"
        transform="scale(1.0004 1) translate(-136.684 -57.003)"
      ></path>
      <path
        fill="#F0F0F0"
        d="M785.163 230.394c0 1.174-.415 2.176-1.246 3.006-.83.83-1.832 1.246-3.006 1.246-1.174 0-2.177-.415-3.007-1.246-.83-.83-1.245-1.832-1.245-3.006 0-1.174.415-2.177 1.245-3.007.83-.83 1.833-1.245 3.007-1.245 1.174 0 2.176.415 3.006 1.245.83.83 1.246 1.833 1.246 3.007 0 .05-.001.099-.003.148M396.163 698.394c0 1.174-.415 2.176-1.246 3.006-.83.83-1.832 1.246-3.006 1.246-1.174 0-2.177-.415-3.007-1.246-.83-.83-1.245-1.832-1.245-3.006 0-1.174.415-2.177 1.245-3.007.83-.83 1.833-1.245 3.007-1.245 1.174 0 2.176.415 3.006 1.245.83.83 1.246 1.833 1.246 3.007 0 .05-.001.099-.003.148M457.163 757.394c0 1.174-.415 2.176-1.246 3.006-.83.83-1.832 1.246-3.006 1.246-1.174 0-2.177-.415-3.007-1.246-.83-.83-1.245-1.832-1.245-3.006 0-1.174.415-2.177 1.245-3.007.83-.83 1.833-1.245 3.007-1.245 1.174 0 2.176.415 3.006 1.245.83.83 1.246 1.833 1.246 3.007 0 .05-.001.099-.003.148M80.163 589.394c0 1.174-.415 2.176-1.246 3.006-.83.83-1.832 1.246-3.006 1.246-1.174 0-2.177-.415-3.007-1.246-.83-.83-1.245-1.832-1.245-3.006 0-1.174.415-2.177 1.245-3.007.83-.83 1.833-1.245 3.007-1.245 1.174 0 2.176.415 3.006 1.245.83.83 1.246 1.833 1.246 3.007 0 .05-.001.099-.003.148M289.163 510.394c0 1.174-.415 2.176-1.246 3.006-.83.83-1.832 1.246-3.006 1.246-1.174 0-2.177-.415-3.007-1.246-.83-.83-1.245-1.832-1.245-3.006 0-1.174.415-2.177 1.245-3.007.83-.83 1.833-1.245 3.007-1.245 1.174 0 2.176.415 3.006 1.245.83.83 1.246 1.833 1.246 3.007 0 .05-.001.099-.003.148M268.163 88.394c0 1.174-.415 2.176-1.246 3.006-.83.83-1.832 1.246-3.006 1.246-1.174 0-2.177-.415-3.007-1.246-.83-.83-1.245-1.832-1.245-3.006 0-1.174.415-2.177 1.245-3.007.83-.83 1.833-1.245 3.007-1.245 1.174 0 2.176.415 3.006 1.245.83.83 1.246 1.833 1.246 3.007 0 .05-.001.099-.003.148M525.163 421.394c0 1.174-.415 2.176-1.246 3.006-.83.83-1.832 1.246-3.006 1.246-1.174 0-2.177-.415-3.007-1.246-.83-.83-1.245-1.832-1.245-3.006 0-1.174.415-2.177 1.245-3.007.83-.83 1.833-1.245 3.007-1.245 1.174 0 2.176.415 3.006 1.245.83.83 1.246 1.833 1.246 3.007 0 .05-.001.099-.003.148M557.163 495.394c0 1.174-.415 2.176-1.246 3.006-.83.83-1.832 1.246-3.006 1.246-1.174 0-2.177-.415-3.007-1.246-.83-.83-1.245-1.832-1.245-3.006 0-1.174.415-2.177 1.245-3.007.83-.83 1.833-1.245 3.007-1.245 1.174 0 2.176.415 3.006 1.245.83.83 1.246 1.833 1.246 3.007 0 .05-.001.099-.003.148"
        transform="scale(1.0004 1)"
      ></path>
      <path
        fill="none"
        d="M291.527 220.728a244.652 244.652 0 0017.362-5.936c33.96-13.117 53.438-30.911 53.438-48.82 0-17.91-19.478-35.703-53.438-48.82a231.55 231.55 0 00-10.386-3.724 136.34 136.34 0 01-6.976 107.3z"
        transform="scale(1.0004 1) translate(-136.684 -57.003)"
      ></path>
      <path
        fill="#946B2D"
        d="M306.326 158.97a135.44 135.44 0 01-14.8 61.76 136.336 136.336 0 01-4.1 7.43 136.431 136.431 0 01-61.23 54.82 305.276 305.276 0 01-40.32-35.01 254.91 254.91 0 01-5.61-6.01c-1.76-1.96-3.5-3.96-5.2-6-22.12-26.43-38.46-58.98-33.56-92.52 4.89-33.45 30.96-61.3 62-74.68 17.94-7.73 37.29-11.19 56.88-11.69a136.126 136.126 0 0135.33 49.16c1 2.37 1.92 4.77 2.79 7.2a135.756 135.756 0 017.82 45.54z"
        transform="scale(1.0004 1) translate(-136.684 -57.003)"
      ></path>
      <path
        fill="#E4E4E4"
        d="M368.326 165.97c0 20.83-20.34 40.15-57.28 54.42-7.39 2.86-15.3 5.45-23.62 7.77-31.14 8.68-68.2 13.49-107.16 13.8-1.76-1.96-3.5-3.96-5.2-6 .42.01.84.01 1.26.01 42.31 0 82.45-5.36 115.2-15.24 6.05-1.83 11.85-3.81 17.36-5.94 33.96-13.11 53.44-30.91 53.44-48.82s-19.48-35.7-53.44-48.82c-3.36-1.3-6.82-2.54-10.38-3.72-.87-2.43-1.79-4.83-2.79-7.2a249.57 249.57 0 0115.33 5.32c36.94 14.27 57.28 33.6 57.28 54.42z"
        transform="scale(1.0004 1) translate(-136.684 -57.003)"
      ></path>
      <path
        fill="#F0F0F0"
        d="M50.163 30.394c0 1.174-.415 2.176-1.246 3.006-.83.83-1.832 1.246-3.006 1.246-1.174 0-2.177-.415-3.007-1.246-.83-.83-1.245-1.832-1.245-3.006 0-1.174.415-2.177 1.245-3.007.83-.83 1.833-1.245 3.007-1.245 1.174 0 2.176.415 3.006 1.245.83.83 1.246 1.833 1.246 3.007 0 .05-.001.099-.003.148M139.163 57.394c0 1.174-.415 2.176-1.246 3.006-.83.83-1.832 1.246-3.006 1.246-1.174 0-2.177-.415-3.007-1.246-.83-.83-1.245-1.832-1.245-3.006 0-1.174.415-2.177 1.245-3.007.83-.83 1.833-1.245 3.007-1.245 1.174 0 2.176.415 3.006 1.245.83.83 1.246 1.833 1.246 3.007 0 .05-.001.099-.003.148M130.26 100.394c0 11.418-4.038 21.164-12.112 29.237-8.073 8.074-17.82 12.111-29.237 12.111-11.418 0-21.164-4.037-29.238-12.11-8.074-8.074-12.11-17.82-12.11-29.238s4.036-21.164 12.11-29.238c8.074-8.074 17.82-12.11 29.238-12.11s21.164 4.036 29.237 12.11c8.074 8.074 12.111 17.82 12.111 29.238 0 .48-.008.962-.025 1.443"
        transform="scale(1.0004 1)"
      ></path>
      <path
        fill="#F0F0F0"
        fillOpacity="0.298"
        d="M989.197 376.24c-9.28 2.74-29.74 4.76-52.24 6-22.49 1.23-47.16 1.77-71.52 2.29-42.64.92-85.277 1.843-127.91 2.77-2.95-1.95-5.9-3.93-8.82-5.95 5.23.03 10.46 0 15.65-.1 22.17-.44 40.94-2.17 62.32-2.99 32.9-1.27 68.42-.27 102.71.24 16.65.88 55.72.69 79.81-2.26zM334.767 691.47l-135.92-113.23L330.89 696.004a3.15 3.15 0 103.876-4.535z"
        transform="scale(1.0004 1) translate(-136.684 -57.003)"
      ></path>
      <path
        fill="#F0F0F0"
        d="M99.163 201.394c0 1.174-.415 2.176-1.246 3.006-.83.83-1.832 1.246-3.006 1.246-1.174 0-2.177-.415-3.007-1.246-.83-.83-1.245-1.832-1.245-3.006 0-1.174.415-2.177 1.245-3.007.83-.83 1.833-1.245 3.007-1.245 1.174 0 2.176.415 3.006 1.245.83.83 1.246 1.833 1.246 3.007 0 .05-.001.099-.003.148"
        transform="scale(1.0004 1)"
      ></path>
      <path
        fill="#FFB6B6"
        d="M452.017 694.074l17.587-.001 8.367-67.837-25.957.001.003 67.837"
        transform="scale(1.0004 1)"
      ></path>
      <path
        fill="#2F2E41"
        d="M584.215 745.335h4.95l19.327-7.86 10.358 7.858h.002c12.19.001 22.071 9.883 22.072 22.073v.717l-56.708.002-.001-22.79z"
        transform="scale(1.0004 1) translate(-136.684 -57.003)"
      ></path>
      <path
        fill="#FFB6B6"
        d="M320.308 694.074l-17.587-.001-8.367-67.837 25.957.001-.003 67.837"
        transform="scale(1.0004 1)"
      ></path>
      <path
        fill="#2F2E41"
        d="M461.477 768.125l-56.708-.002v-.718c0-12.19 9.882-22.071 22.072-22.072h.002l10.358-7.858 19.327 7.86h4.95v22.79z"
        transform="scale(1.0004 1) translate(-136.684 -57.003)"
      ></path>
      <path
        fill="#946B2D"
        d="M520.01 231.191l-17.809 13.56-47.305 12.528s16.95 118.96 8.95 126.96-.784 8.215-2.392 18.608c-1.607 10.392-8.013 37.83-8.013 37.83h141.187s1.138-17.052-5.822-20.745c-6.96-3.693 6.416-20.929.728-23.81-5.688-2.883 2.313-27.883 2.313-27.883l17.337-81.85-46.114-36.079-7.014-16.897-36.047-2.222z"
        transform="scale(1.0004 1) translate(-136.684 -57.003)"
      ></path>
      <path
        fill="#F2F2F2"
        d="M411.707 274.328c0 1.702-.602 3.154-1.805 4.357-1.203 1.203-2.655 1.805-4.357 1.805-1.701 0-3.154-.602-4.357-1.805-1.203-1.203-1.804-2.655-1.804-4.357 0-1.701.601-3.153 1.804-4.356 1.203-1.203 2.656-1.805 4.357-1.805 1.702 0 3.154.602 4.357 1.805 1.203 1.203 1.805 2.655 1.805 4.356 0 .072-.002.144-.004.215"
        transform="scale(1.0004 1)"
      ></path>
      <path
        fill="#2F2E41"
        d="M453.44 440.678l-5.822 149.92s-25.138 110.73-20.772 113.641c4.367 2.911 6.217 20.27 6.217 20.27l24.744 2.91s0-11.644 5.822-16.01c5.823-4.367 59.678-209.599 59.678-209.599l52.54 198.43s1.315 11.169 5.682 11.169c4.366 0 5.822 16.01 5.822 16.01h24.744v-16.01s11.118-3.525 6.751-15.17c-4.366-11.644-24.218-255.561-24.218-255.561H453.441z"
        transform="scale(1.0004 1) translate(-136.684 -57.003)"
      ></path>
      <path
        fill="#FFB6B6"
        d="M431.656 135.415c0 8.24-2.913 15.273-8.74 21.1-5.826 5.826-12.86 8.739-21.099 8.739-8.24 0-15.272-2.913-21.099-8.74-5.826-5.826-8.74-12.859-8.74-21.099s2.914-15.272 8.74-21.099c5.827-5.826 12.86-8.74 21.1-8.74 8.239 0 15.272 2.914 21.098 8.74 5.827 5.827 8.74 12.86 8.74 21.1 0 .346-.006.694-.018 1.04"
        transform="scale(1.0004 1)"
      ></path>
      <path
        fillOpacity="0.098"
        d="M452.85 269.414l5.822 4.367 2.911-20.378-8.733 16.011"
        transform="scale(1.0004 1)"
      ></path>
      <path
        fill="#946B2D"
        d="M457.687 257.163s-7.278-1.455-11.645 11.645c-4.366 13.1-20.377 62.588-20.377 71.321 0 8.733 99.71 47.267 99.71 47.267L515 351l-45.67-23.97-11.643-69.867z"
        transform="scale(1.0004 1) translate(-136.684 -57.003)"
      ></path>
      <path
        fill="#FFB6B6"
        d="M410.316 307.997c0 4.694-1.66 8.701-4.979 12.02-3.32 3.32-7.326 4.98-12.02 4.98-4.695 0-8.702-1.66-12.022-4.98-3.32-3.319-4.979-7.326-4.979-12.02 0-4.695 1.66-8.702 4.98-12.021 3.319-3.32 7.326-4.98 12.02-4.98 4.695 0 8.702 1.66 12.021 4.98 3.32 3.32 4.98 7.326 4.98 12.02 0 .199-.004.396-.011.594"
        transform="scale(1.0004 1)"
      ></path>
      <path
        fillOpacity="0.098"
        d="M331.316 251.997l1.331 18.029 42.231 22.166-37.562-25.195-6-15"
        transform="scale(1.0004 1)"
      ></path>
      <path
        fill="#F0F0F0"
        d="M569.523 311.57h-.548v-15.008a8.687 8.687 0 00-8.686-8.686h-31.797a8.687 8.687 0 00-8.687 8.686V378.9a8.686 8.686 0 008.687 8.686h31.797a8.687 8.687 0 008.686-8.686v-56.645h.548V311.57z"
        transform="scale(1.0004 1) translate(-136.684 -57.003)"
      ></path>
      <path
        fill="#946B2D"
        d="M609.184 286.39s4.366 2.911 7.278 16.01c2.91 13.1 21.833 62.59 14.555 74.234-7.278 11.644-9.426 24.072-34.17 6.605l-34.24-31.35 24.744-23.288 10.188 7.277 11.645-49.488z"
        transform="scale(1.0004 1) translate(-136.684 -57.003)"
      ></path>
      <path
        fill="#946B2D"
        d="M415.373 260.292c0 2.01-.71 3.725-2.132 5.146-1.421 1.422-3.136 2.132-5.146 2.132s-3.725-.71-5.146-2.132c-1.421-1.42-2.132-3.136-2.132-5.146s.71-3.725 2.132-5.146c1.42-1.42 3.136-2.131 5.146-2.131s3.725.71 5.146 2.131c1.421 1.421 2.132 3.137 2.132 5.146 0 .085-.002.17-.005.254"
        transform="scale(1.0004 1)"
      ></path>
      <path
        fill="#FFB6B6"
        d="M446.163 276.236c0 4.695-1.66 8.702-4.98 12.021-3.319 3.32-7.326 4.98-12.02 4.98-4.695 0-8.702-1.66-12.021-4.98-3.32-3.32-4.98-7.326-4.98-12.02 0-4.695 1.66-8.702 4.98-12.022 3.32-3.319 7.326-4.979 12.02-4.979 4.695 0 8.702 1.66 12.022 4.98 3.319 3.319 4.979 7.326 4.979 12.02 0 .198-.004.396-.01.594"
        transform="scale(1.0004 1)"
      ></path>
      <path
        fillOpacity="0.098"
        d="M330.514 306.41l48.802 21.587-50.158-9.803 1.356-11.784"
        transform="scale(1.0004 1)"
      ></path>
      <path
        fill="#2F2E41"
        d="M508.397 198.365l-4.097-15.592c-1.069-4.068-2.146-8.219-1.906-12.418.24-4.2 2.021-8.533 5.56-10.808 3.537-2.275 8.938-1.738 11.215 1.799.432-5.648 5.57-9.992 11.021-11.531 5.452-1.539 11.24-.93 16.897-.67 5.659.259 11.631.078 16.515-2.792a5.112 5.112 0 01-2.29 6.041 4.963 4.963 0 005.996-3.162 12.88 12.88 0 01-3.381 8.846 9.475 9.475 0 0112.246 3.467c2.492 4.32 1.096 9.747-.362 14.517l-7.484 24.483c-1.135-3.722-1.35-7.651-1.956-11.495-.607-3.843-1.688-7.768-4.225-10.718-2.536-2.95-6.846-4.658-10.45-3.193-2.023.821-3.565 2.489-5.391 3.685-3.747 2.455-8.512 2.808-12.963 2.308-4.452-.5-8.79-1.767-13.24-2.273-2.787-.317-5.896-.234-7.999 1.623a10.28 10.28 0 00-2.738 5.467 43.483 43.483 0 00-1.158 12.54"
        transform="scale(1.0004 1) translate(-136.684 -57.003)"
      ></path>
    </svg>
  