
    <svg xmlns="http://www.w3.org/2000/svg" width="298" height="259">
      <path
        fill="#F2F2F2"
        d="M941.609 465.125a354.21 354.21 0 01-98.85 245.9 326.592 326.592 0 01-11.8 11.74 353.935 353.935 0 01-217.58 80.69c-2.65.06-5.31.09-7.98.09-63.43 0-143.21-33.88-215.61-80.78a732.622 732.622 0 01-17.81-11.91 730.43 730.43 0 01-79.32-64.8 514.103 514.103 0 01-45.75-48.92c-55.63-68.62-67.9-130.45 11.41-143.16 9.39-1.5 18.503-3.103 27.34-4.81 65.74-23.09 109.74-53.2 139.69-85.87 5.08-5.53 9.763-11.127 14.05-16.79a236.055 236.055 0 0017.83-27.12 254.9 254.9 0 0018.41-41.05l.27-.78c23.83-68.74 16.58-132.5 42.87-153.84 112.38-91.23 252.29 38.69 317.96 191.9a525.262 525.262 0 019.34 23.3c.97 3.77 1.9 7.53 2.76 11.29 89.3 62.1 92.77 89.25 92.77 114.92z"
        transform="matrix(.3496 0 0 .3496 .323 0) translate(-174.731 -79.585)"
      ></path>
      <path
        fill="#2F2E41"
        d="M594.309 820.325c-2.65.06-5.31.09-7.98.09-63.43 0-143.21-33.88-215.61-80.78a732.496 732.496 0 01-17.81-11.91l5.16-31.4 156.21-20.74 78.4 59.95 1.63 84.79z"
        transform="matrix(.3496 0 0 .3496 .323 0) translate(-174.731 -79.585)"
      ></path>
      <path
        fill="#FFF"
        d="M601.829 259.635h-22.26a2.601 2.601 0 00-2.6 2.6v22.27a2.593 2.593 0 002.6 2.59h22.26a2.6 2.6 0 002.6-2.59v-22.27a2.608 2.608 0 00-2.6-2.6z"
        transform="matrix(.3496 0 0 .3496 .323 0) translate(-174.731 -79.585)"
      ></path>
      <path
        fill="#E6E6E6"
        d="M601.829 297.585h-22.26a2.601 2.601 0 00-2.6 2.6v22.27a2.592 2.592 0 002.6 2.59h22.26a2.6 2.6 0 002.6-2.59v-22.27a2.608 2.608 0 00-2.6-2.6zM601.829 335.535h-22.26a2.601 2.601 0 00-2.6 2.6v22.26a2.595 2.595 0 002.6 2.6h22.26c1.436 0 2.6-1.165 2.6-2.6v-22.26a2.608 2.608 0 00-2.6-2.6zM604.389 375.625a2.617 2.617 0 00-2.56-2.14h-22.26a2.601 2.601 0 00-2.6 2.6v22.26a2.595 2.595 0 002.6 2.6h22.26c1.436 0 2.6-1.164 2.6-2.6v-22.26a2.315 2.315 0 00-.04-.46zM602.839 411.635c-.32-.133-.663-.2-1.01-.2h-22.26a2.595 2.595 0 00-2.6 2.6v22.26a2.588 2.588 0 002.6 2.6h22.26c1.436 0 2.6-1.164 2.6-2.6v-22.26a2.616 2.616 0 00-1.59-2.4zM648.589 259.635h-22.26a2.601 2.601 0 00-2.6 2.6v22.27a2.593 2.593 0 002.6 2.59h22.26a2.6 2.6 0 002.6-2.59v-22.27a2.608 2.608 0 00-2.6-2.6z"
        transform="matrix(.3496 0 0 .3496 .323 0) translate(-174.731 -79.585)"
      ></path>
      <path
        fill="#946B2D"
        d="M648.589 297.585h-22.26a2.601 2.601 0 00-2.6 2.6v22.27a2.592 2.592 0 002.6 2.59h22.26a2.6 2.6 0 002.6-2.59v-22.27a2.608 2.608 0 00-2.6-2.6zM648.589 335.535h-22.26a2.601 2.601 0 00-2.6 2.6v22.26a2.595 2.595 0 002.6 2.6h22.26c1.436 0 2.6-1.165 2.6-2.6v-22.26a2.608 2.608 0 00-2.6-2.6zM648.589 373.485h-22.26c-1.118 0-2.11.718-2.46 1.78-.093.263-.14.54-.14.82v22.26a2.595 2.595 0 002.6 2.6h22.26c1.436 0 2.6-1.165 2.6-2.6v-22.26a2.608 2.608 0 00-2.6-2.6z"
        transform="matrix(.3496 0 0 .3496 .323 0) translate(-174.731 -79.585)"
      ></path>
      <path
        fill="#E6E6E6"
        d="M648.589 411.435h-22.26a2.595 2.595 0 00-2.6 2.6v22.26a2.595 2.595 0 002.6 2.6h22.26c1.436 0 2.6-1.164 2.6-2.6v-22.26c0-1.436-1.164-2.6-2.6-2.6z"
        transform="matrix(.3496 0 0 .3496 .323 0) translate(-174.731 -79.585)"
      ></path>
      <path
        fill="#946B2D"
        d="M695.349 259.635h-22.26a2.601 2.601 0 00-2.6 2.6v22.27a2.593 2.593 0 002.6 2.59h22.26a2.6 2.6 0 002.6-2.59v-22.27a2.608 2.608 0 00-2.6-2.6zM695.349 297.585h-22.26a2.601 2.601 0 00-2.6 2.6v22.27a2.592 2.592 0 002.6 2.59h22.26a2.6 2.6 0 002.6-2.59v-22.27a2.608 2.608 0 00-2.6-2.6z"
        transform="matrix(.3496 0 0 .3496 .323 0) translate(-174.731 -79.585)"
      ></path>
      <path
        fill="#E6E6E6"
        d="M695.349 335.535h-22.26a2.601 2.601 0 00-2.6 2.6v22.26a2.595 2.595 0 002.6 2.6h22.26c1.436 0 2.6-1.165 2.6-2.6v-22.26a2.608 2.608 0 00-2.6-2.6z"
        transform="matrix(.3496 0 0 .3496 .323 0) translate(-174.731 -79.585)"
      ></path>
      <path
        fill="#946B2D"
        d="M695.349 373.485h-22.26a2.601 2.601 0 00-2.6 2.6v22.26a2.595 2.595 0 002.6 2.6h22.26c1.436 0 2.6-1.164 2.6-2.6v-22.26a2.608 2.608 0 00-2.6-2.6zM695.349 411.435h-22.26a2.595 2.595 0 00-2.6 2.6v22.26a2.595 2.595 0 002.6 2.6h22.26c1.436 0 2.6-1.164 2.6-2.6v-22.26c0-1.436-1.164-2.6-2.6-2.6zM742.109 259.635h-22.26a2.601 2.601 0 00-2.6 2.6v22.27a2.593 2.593 0 002.6 2.59h22.26a2.6 2.6 0 002.6-2.59v-22.27a2.608 2.608 0 00-2.6-2.6z"
        transform="matrix(.3496 0 0 .3496 .323 0) translate(-174.731 -79.585)"
      ></path>
      <path
        fill="#FFF"
        d="M742.109 297.585h-22.26a2.601 2.601 0 00-2.6 2.6v22.27a2.593 2.593 0 002.6 2.59h22.26a2.6 2.6 0 002.6-2.59v-22.27a2.608 2.608 0 00-2.6-2.6zM742.109 335.535h-22.26a2.601 2.601 0 00-2.6 2.6v22.26a2.595 2.595 0 002.6 2.6h22.26c1.436 0 2.6-1.165 2.6-2.6v-22.26a2.608 2.608 0 00-2.6-2.6z"
        transform="matrix(.3496 0 0 .3496 .323 0) translate(-174.731 -79.585)"
      ></path>
      <path
        fill="#E6E6E6"
        d="M742.109 373.485h-22.26a2.601 2.601 0 00-2.6 2.6v22.26a2.595 2.595 0 002.6 2.6h22.26c1.436 0 2.6-1.164 2.6-2.6v-22.26a2.608 2.608 0 00-2.6-2.6z"
        transform="matrix(.3496 0 0 .3496 .323 0) translate(-174.731 -79.585)"
      ></path>
      <path
        fill="#946B2D"
        d="M742.109 411.435h-22.26a2.595 2.595 0 00-2.6 2.6v22.26a2.595 2.595 0 002.6 2.6h22.26c1.436 0 2.6-1.164 2.6-2.6v-22.26c0-1.436-1.164-2.6-2.6-2.6z"
        transform="matrix(.3496 0 0 .3496 .323 0) translate(-174.731 -79.585)"
      ></path>
      <path
        fill="#FFF"
        d="M788.869 259.635h-22.27a2.599 2.599 0 00-2.59 2.6v22.27a2.59 2.59 0 002.59 2.59h22.27a2.6 2.6 0 002.6-2.59v-22.27a2.608 2.608 0 00-2.6-2.6zM788.869 297.585h-22.27a2.599 2.599 0 00-2.59 2.6v22.27a2.59 2.59 0 002.59 2.59h22.27a2.599 2.599 0 002.6-2.59v-22.27a2.608 2.608 0 00-2.6-2.6zM788.869 335.535h-22.27a2.599 2.599 0 00-2.59 2.6v22.26a2.592 2.592 0 002.59 2.6h22.27c1.436 0 2.6-1.165 2.6-2.6v-22.26a2.608 2.608 0 00-2.6-2.6z"
        transform="matrix(.3496 0 0 .3496 .323 0) translate(-174.731 -79.585)"
      ></path>
      <path
        fill="#946B2D"
        d="M788.869 373.485h-22.27a2.6 2.6 0 00-2.59 2.6v22.26a2.592 2.592 0 002.59 2.6h22.27c1.436 0 2.6-1.164 2.6-2.6v-22.26a2.608 2.608 0 00-2.6-2.6z"
        transform="matrix(.3496 0 0 .3496 .323 0) translate(-174.731 -79.585)"
      ></path>
      <path
        fill="#E6E6E6"
        d="M788.869 411.435h-22.27a2.593 2.593 0 00-2.59 2.6v22.26a2.592 2.592 0 002.59 2.6h22.27c1.436 0 2.6-1.164 2.6-2.6v-22.26c0-1.436-1.164-2.6-2.6-2.6z"
        transform="matrix(.3496 0 0 .3496 .323 0) translate(-174.731 -79.585)"
      ></path>
      <path
        fill="#FFF"
        d="M835.629 259.635h-22.27a2.599 2.599 0 00-2.59 2.6v22.27a2.59 2.59 0 002.59 2.59h22.27a2.6 2.6 0 002.6-2.59v-22.27a2.608 2.608 0 00-2.6-2.6zM835.629 297.585h-22.27a2.599 2.599 0 00-2.59 2.6v22.27a2.59 2.59 0 002.59 2.59h22.27a2.6 2.6 0 002.6-2.59v-22.27a2.608 2.608 0 00-2.6-2.6z"
        transform="matrix(.3496 0 0 .3496 .323 0) translate(-174.731 -79.585)"
      ></path>
      <path
        fill="#946B2D"
        d="M835.629 335.535h-22.27a2.6 2.6 0 00-2.59 2.6v22.26a2.592 2.592 0 002.59 2.6h22.27c1.436 0 2.6-1.165 2.6-2.6v-22.26a2.608 2.608 0 00-2.6-2.6z"
        transform="matrix(.3496 0 0 .3496 .323 0) translate(-174.731 -79.585)"
      ></path>
      <path
        fill="#E6E6E6"
        d="M835.629 373.485h-22.27a2.6 2.6 0 00-2.59 2.6v22.26a2.592 2.592 0 002.59 2.6h22.27c1.436 0 2.6-1.164 2.6-2.6v-22.26a2.608 2.608 0 00-2.6-2.6z"
        transform="matrix(.3496 0 0 .3496 .323 0) translate(-174.731 -79.585)"
      ></path>
      <path
        fill="#FFF"
        d="M835.629 411.435h-22.27a2.593 2.593 0 00-2.59 2.6v22.26a2.592 2.592 0 002.59 2.6h22.27c1.436 0 2.6-1.165 2.6-2.6v-22.26c0-1.436-1.164-2.6-2.6-2.6z"
        transform="matrix(.3496 0 0 .3496 .323 0) translate(-174.731 -79.585)"
      ></path>
      <path
        fill="#946B2D"
        d="M882.389 259.635h-22.27a2.6 2.6 0 00-2.59 2.6v22.27a2.59 2.59 0 002.59 2.59h22.27a2.6 2.6 0 002.6-2.59v-22.27a2.608 2.608 0 00-2.6-2.6zM882.389 297.585h-22.27a2.6 2.6 0 00-2.59 2.6v22.27a2.59 2.59 0 002.59 2.59h22.27a2.6 2.6 0 002.6-2.59v-22.27a2.608 2.608 0 00-2.6-2.6z"
        transform="matrix(.3496 0 0 .3496 .323 0) translate(-174.731 -79.585)"
      ></path>
      <path
        fill="#E6E6E6"
        d="M882.389 335.535h-22.27a2.6 2.6 0 00-2.59 2.6v22.26a2.593 2.593 0 002.59 2.6h22.27c1.436 0 2.6-1.165 2.6-2.6v-22.26a2.608 2.608 0 00-2.6-2.6z"
        transform="matrix(.3496 0 0 .3496 .323 0) translate(-174.731 -79.585)"
      ></path>
      <path
        fill="#FFF"
        d="M882.389 373.485h-22.27a2.6 2.6 0 00-2.59 2.6v22.26a2.593 2.593 0 002.59 2.6h22.27c1.436 0 2.6-1.164 2.6-2.6v-22.26a2.608 2.608 0 00-2.6-2.6z"
        transform="matrix(.3496 0 0 .3496 .323 0) translate(-174.731 -79.585)"
      ></path>
      <path
        fill="#946B2D"
        d="M882.389 411.435h-22.27a2.593 2.593 0 00-2.59 2.6v22.26a2.593 2.593 0 002.59 2.6h22.27c1.436 0 2.6-1.165 2.6-2.6v-22.26c0-1.436-1.164-2.6-2.6-2.6zM929.149 259.635h-22.27a2.6 2.6 0 00-2.59 2.6v22.27a2.59 2.59 0 002.59 2.59h22.27a2.6 2.6 0 002.6-2.59v-22.27a2.608 2.608 0 00-2.6-2.6zM929.149 297.585h-22.27a2.6 2.6 0 00-2.59 2.6v22.27a2.59 2.59 0 002.59 2.59h22.27a2.599 2.599 0 002.6-2.59v-22.27a2.608 2.608 0 00-2.6-2.6z"
        transform="matrix(.3496 0 0 .3496 .323 0) translate(-174.731 -79.585)"
      ></path>
      <path
        fill="#E6E6E6"
        d="M929.149 335.535h-22.27a2.6 2.6 0 00-2.59 2.6v22.26a2.593 2.593 0 002.59 2.6h22.27c1.436 0 2.6-1.165 2.6-2.6v-22.26a2.608 2.608 0 00-2.6-2.6z"
        transform="matrix(.3496 0 0 .3496 .323 0) translate(-174.731 -79.585)"
      ></path>
      <path
        fill="#946B2D"
        d="M929.149 373.485h-22.27a2.6 2.6 0 00-2.59 2.6v22.26a2.593 2.593 0 002.59 2.6h22.27c1.436 0 2.6-1.164 2.6-2.6v-22.26a2.608 2.608 0 00-2.6-2.6zM929.149 411.435h-22.27a2.593 2.593 0 00-2.59 2.6v22.26a2.593 2.593 0 002.59 2.6h22.27c1.436 0 2.6-1.165 2.6-2.6v-22.26c0-1.436-1.164-2.6-2.6-2.6z"
        transform="matrix(.3496 0 0 .3496 .323 0) translate(-174.731 -79.585)"
      ></path>
      <path
        fill="#E6E6E6"
        d="M975.909 259.635h-22.27a2.6 2.6 0 00-2.59 2.6v22.27a2.59 2.59 0 002.59 2.59h22.27a2.6 2.6 0 002.6-2.59v-22.27a2.608 2.608 0 00-2.6-2.6z"
        transform="matrix(.3496 0 0 .3496 .323 0) translate(-174.731 -79.585)"
      ></path>
      <path
        fill="#946B2D"
        d="M975.909 297.585h-22.27a2.6 2.6 0 00-2.59 2.6v22.27a2.59 2.59 0 002.59 2.59h22.27a2.599 2.599 0 002.6-2.59v-22.27a2.608 2.608 0 00-2.6-2.6zM975.909 335.535h-22.27a2.6 2.6 0 00-2.59 2.6v22.26a2.593 2.593 0 002.59 2.6h22.27c1.436 0 2.6-1.165 2.6-2.6v-22.26a2.608 2.608 0 00-2.6-2.6zM975.909 373.485h-22.27a2.6 2.6 0 00-2.59 2.6v22.26a2.593 2.593 0 002.59 2.6h22.27c1.436 0 2.6-1.164 2.6-2.6v-22.26a2.608 2.608 0 00-2.6-2.6z"
        transform="matrix(.3496 0 0 .3496 .323 0) translate(-174.731 -79.585)"
      ></path>
      <path
        fill="#E6E6E6"
        d="M975.909 411.435h-22.27a2.593 2.593 0 00-2.59 2.6v22.26a2.593 2.593 0 002.59 2.6h22.27c1.436 0 2.6-1.165 2.6-2.6v-22.26c0-1.436-1.164-2.6-2.6-2.6zM1022.669 259.635h-22.27a2.6 2.6 0 00-2.59 2.6v22.27a2.59 2.59 0 002.59 2.59h22.27a2.6 2.6 0 002.6-2.59v-22.27a2.608 2.608 0 00-2.6-2.6zM1022.669 297.585h-22.27a2.6 2.6 0 00-2.59 2.6v22.27a2.59 2.59 0 002.59 2.59h22.27a2.599 2.599 0 002.6-2.59v-22.27a2.607 2.607 0 00-2.6-2.6z"
        transform="matrix(.3496 0 0 .3496 .323 0) translate(-174.731 -79.585)"
      ></path>
      <path
        fill="#946B2D"
        d="M1022.669 335.535h-22.27a2.6 2.6 0 00-2.59 2.6v22.26a2.593 2.593 0 002.59 2.6h22.27c1.436 0 2.6-1.165 2.6-2.6v-22.26a2.608 2.608 0 00-2.6-2.6z"
        transform="matrix(.3496 0 0 .3496 .323 0) translate(-174.731 -79.585)"
      ></path>
      <path
        fill="#E6E6E6"
        d="M1022.669 373.485h-22.27a2.6 2.6 0 00-2.59 2.6v22.26a2.593 2.593 0 002.59 2.6h22.27c1.436 0 2.6-1.164 2.6-2.6v-22.26a2.608 2.608 0 00-2.6-2.6zM1022.669 411.435h-22.27a2.593 2.593 0 00-2.59 2.6v22.26a2.593 2.593 0 002.59 2.6h22.27c1.436 0 2.6-1.164 2.6-2.6v-22.26c0-1.436-1.164-2.6-2.6-2.6z"
        transform="matrix(.3496 0 0 .3496 .323 0) translate(-174.731 -79.585)"
      ></path>
      <path
        fill="#2F2E41"
        d="M336.095 660.051h-.62l.53-.07.09.07"
        transform="matrix(.3496 0 0 .3496 .323 0)"
      ></path>
      <path
        fill="#FFB6B6"
        d="M351.136 176.733c0 18.866-6.67 34.97-20.01 48.31-13.341 13.341-29.445 20.012-48.312 20.012-18.866 0-34.97-6.67-48.31-20.011-13.341-13.341-20.011-29.445-20.011-48.311 0-18.867 6.67-34.97 20.01-48.311 13.341-13.34 29.445-20.011 48.311-20.011 18.867 0 34.97 6.67 48.311 20.01 13.34 13.342 20.011 29.445 20.011 48.312 0 .795-.014 1.59-.041 2.384"
        transform="matrix(.3496 0 0 .3496 .323 0)"
      ></path>
      <path
        fill="#2F2E41"
        d="M517.377 206.226s17.87-34.161-21.444-37.267c0 0-33.515-30.402-67.676-5.558 0 0-18.633 0-28.822 21.086 0 0-14.655-5.558-17.876 9.316 0 0-10.723 31.056 0 59.006 10.724 27.95 14.286 31.055 14.286 31.055s-17.621-58.598 25.27-61.704c42.89-3.106 90.886-29.91 94.46 4.252 3.575 34.16 8.954 42.577 8.954 42.577s33.95-48.788-7.152-62.763z"
        transform="matrix(.3496 0 0 .3496 .323 0) translate(-174.731 -79.585)"
      ></path>
      <path
        fill="#CACACA"
        d="M634.279 424.695l-.22 1.16-2.47 13.04-17.07 90.2-1.01 5.31-2.12 11.23-2.9 15.32-6.43 33.95-1.84 9.73-.69 3.65-.24 1.28-1.91 10.07-.58 3.04-4.66 34.53-4.07 30.09 13.62 13.62-8.12 8.12-5.33 30.53.01.07h-217.53a757.545 757.545 0 01-26.02-17.63l1.79-13.4s6.16-23.93 3.57-26.79c-2.58-2.86-8.24-7.97-8.24-7.97l7.13-16.64.99-2.31-1.66-34.43-.04-.83-.55-11.35-.07-1.46-.11-2.19-2.11-43.68-.04-.72-.64-13.24-.6-12.59-.26-5.31-2.57-53.13-1.74-36.08-1.52-31.41 6.11-2.07 65.35-22.21 27.07-35.19 56.34.42 27.58.21 46.02 42.68 10.47 5 .08.04 7.51 3.59 19.04 9.09 20.13 9.62 10.33 4.93.22.11z"
        transform="matrix(.3496 0 0 .3496 .323 0) translate(-174.731 -79.585)"
      ></path>
      <path
        fill="#FFB6B6"
        d="M443.84 637.136a30.286 30.286 0 01-40.664-22.43l-106.559-15.118 37.043-41.902 95.51 20.78c15.306-1.952 29.652 7.852 33.395 22.82 3.742 14.968-4.302 30.37-18.725 35.85z"
        transform="matrix(.3496 0 0 .3496 .323 0) translate(-174.731 -79.585)"
      ></path>
      <path
        fill="#CACACA"
        d="M396.329 560.955a13.523 13.523 0 00-7.89-4.87l-43.72-9.09-4.49-.93a18.933 18.933 0 01-12.53-9.07 19.161 19.161 0 01-2.45-7.9 18.895 18.895 0 01.89-7.48l15.15-45.65 9.83-29.62a41.79 41.79 0 002.09-11.05 43.349 43.349 0 00-9.07-28.89c-11.548-14.846-31.452-20.386-49.01-13.64-.25.09-.51.19-.76.29a42.583 42.583 0 00-25.31 28.41l-10.68 38.85-22.03 80.09a57.766 57.766 0 0048.96 72.68l62.97 7.38 29.14 3.42c6.988.84 13.448-3.831 14.84-10.73.047-.181.084-.365.11-.55l.7-4.32 5.93-36.38.06-.37a13.475 13.475 0 00-2.73-10.58z"
        transform="matrix(.3496 0 0 .3496 .323 0) translate(-174.731 -79.585)"
      ></path>
      <path
        fill="#FFB6B6"
        d="M511.714 638.302a30.286 30.286 0 0037.094-27.94L652.17 580.37l-42.582-36.26-91.626 34.041c-15.427.226-28.248 11.954-29.842 27.3-1.594 15.347 8.542 29.46 23.594 32.852z"
        transform="matrix(.3496 0 0 .3496 .323 0) translate(-174.731 -79.585)"
      ></path>
      <path
        fill="#CACACA"
        d="M703.49 513.275l-49.161-113.14a42.82 42.82 0 00-20.27-21.35 43.355 43.355 0 00-8.78-3.2c-.47-.12-.94-.23-1.41-.32a42.132 42.132 0 00-19.48.36 42.814 42.814 0 00-27.34 21.73c-.03.044-.057.091-.08.14a43.1 43.1 0 00-.37 38.85l.61 1.22 34.74 69.77a18.9 18.9 0 01-10.5 26.19l-2.44.88-43.88 15.85c-6.844 2.442-10.526 9.863-8.33 16.79l.11.35 12.3 39.36c.06.18.12.36.19.54.108.34.242.67.4.99a13.482 13.482 0 0015.81 7.53l23.68-6.25 4.83-1.28 61.15-16.15a57.76 57.76 0 0038.22-78.86z"
        transform="matrix(.3496 0 0 .3496 .323 0) translate(-174.731 -79.585)"
      ></path>
      <path
        fill="#3F3D56"
        d="M219.629 608.285a514.12 514.12 0 0045.75 48.92h451.97c9.066.014 16.411 7.363 16.42 16.43l.65 114.53a355.428 355.428 0 0077.47-48.53 349.177 349.177 0 0019.07-16.87 355.633 355.633 0 0068.82-102.74l-680.15-11.74z"
        transform="matrix(.3496 0 0 .3496 .323 0) translate(-174.731 -79.585)"
      ></path>
      <path
        fill="#FFF"
        d="M842.759 711.025a326.567 326.567 0 01-11.8 11.74h-96.21v-11.74h108.01z"
        transform="matrix(.3496 0 0 .3496 .323 0) translate(-174.731 -79.585)"
      ></path>
      <path
        fill="#3F3D56"
        d="M633.379 335.535a5.538 5.538 0 00-4.87-2.9h-327.84a5.555 5.555 0 00-5.54 5.55v196.22h338.93v-196.22a5.385 5.385 0 00-.68-2.65z"
        transform="matrix(.3496 0 0 .3496 .323 0) translate(-174.731 -79.585)"
      ></path>
      <path
        fill="#3F3D56"
        d="M294.832 529.092v24.214a7.644 7.644 0 007.644 7.644h125.097v47.787h-1.662a.993.993 0 00-.993.993v3.323a.993.993 0 00.993.993h77.658a.993.993 0 00.993-.993v-3.323a.993.993 0 00-.993-.993h-1.662V560.95h125.097a7.644 7.644 0 007.644-7.644v-24.214H294.832z"
        transform="matrix(.3496 0 0 .3496 .323 0) translate(-174.731 -79.585)"
      ></path>
      <path
        fill="#946B2D"
        d="M317.21 348.704c0 8.645-3.057 16.024-9.17 22.137-6.113 6.113-13.492 9.17-22.137 9.17s-16.024-3.057-22.137-9.17c-6.113-6.113-9.17-13.492-9.17-22.137s3.057-16.024 9.17-22.137c6.113-6.113 13.492-9.17 22.137-9.17s16.024 3.057 22.137 9.17c6.113 6.113 9.17 13.492 9.17 22.137 0 .364-.007.728-.02 1.092"
        transform="matrix(.3496 0 0 .3496 .323 0)"
      ></path>
      <path
        fill="#946B2D"
        d="M540.399 252.585h-5c0-37.8-37.41-62.57-75.15-62.59a82.383 82.383 0 00-16.35 1.59c-6.06 1.21-12.35 2.66-18.53 4.55-24.37 7.47-46.97 21.91-46.97 56.45a78.593 78.593 0 002.54 19.88l-4.84 1.26a83.877 83.877 0 01-2.7-21.14c0-30.18 12.39-50.91 33.79-63.27 11.25-6.5 24.98-10.69 40.71-12.73a97.132 97.132 0 0119.75-.6c43.4 3.12 72.75 36.4 72.75 76.6z"
        transform="matrix(.3496 0 0 .3496 .323 0) translate(-174.731 -79.585)"
      ></path>
      <path
        fill="#946B2D"
        d="M548.729 255.355l-1.97-14.56a15.71 15.71 0 00-5-9.56 15.816 15.816 0 00-13.25-4l-3.13.43a6.524 6.524 0 00-4.35 2.53 6.547 6.547 0 00-1.29 4.87l4.55 33.54a6.577 6.577 0 005.3 5.57c.402.08.81.12 1.22.12.294 0 .588-.02.88-.06l3.5-.47a15.791 15.791 0 0010.74-6.43c.27-.38.53-.77.77-1.17a16.748 16.748 0 002.03-10.81z"
        transform="matrix(.3496 0 0 .3496 .323 0) translate(-174.731 -79.585)"
      ></path>
      <path
        fill="#FFF"
        d="M523.359 228.275a6.431 6.431 0 00-2.33 1.92 6.548 6.548 0 00-1.29 4.87l4.55 33.54a6.577 6.577 0 005.3 5.57l-6.23-45.9z"
        transform="matrix(.3496 0 0 .3496 .323 0) translate(-174.731 -79.585)"
      ></path>
      <path
        fill="#3F3D56"
        d="M548.729 255.355l-1.97-14.56a15.71 15.71 0 00-5-9.56l4.53 33.37c.068.535.206 1.06.41 1.56a16.748 16.748 0 002.03-10.81z"
        transform="matrix(.3496 0 0 .3496 .323 0) translate(-174.731 -79.585)"
      ></path>
      <path
        fill="#3F3D56"
        d="M529.718 258.909c0-3.866 1.12-7 2.5-7 1.381 0 2.5 3.134 2.5 7s-1.119 7-2.5 7c-1.38 0-2.5-3.134-2.5-7"
        transform="matrix(.3496 0 0 .3496 .323 0) rotate(-7.726 -144.494 1513.037)"
      ></path>
      <path
        fill="#3F3D56"
        d="M526.718 240.909c0-3.866 1.12-7 2.5-7 1.381 0 2.5 3.134 2.5 7s-1.119 7-2.5 7c-1.38 0-2.5-3.134-2.5-7"
        transform="matrix(.3496 0 0 .3496 .323 0) rotate(-7.726 -147.494 1495.038)"
      ></path>
      <path
        fill="#3F3D56"
        d="M545.718 247.909c0-3.866 1.12-7 2.5-7 1.381 0 2.5 3.134 2.5 7s-1.119 7-2.5 7c-1.38 0-2.5-3.134-2.5-7"
        transform="matrix(.3496 0 0 .3496 .323 0) rotate(-7.726 -128.494 1502.037)"
      ></path>
      <path
        fill="#3F3D56"
        d="M460.249 189.995a82.383 82.383 0 00-16.35 1.59c-6.06 1.21-12.35 2.66-18.53 4.55-9.65-.47-16.75-2.97-18.18-6.82 11.25-6.5 24.98-10.69 40.71-12.73a97.13 97.13 0 0119.75-.6 5.727 5.727 0 012.72 3.82c.47 3.48-3.5 7.18-10.12 10.19z"
        transform="matrix(.3496 0 0 .3496 .323 0) translate(-174.731 -79.585)"
      ></path>
      <path
        fill="#946B2D"
        d="M396.409 287.285l-7.7-32.01a6.024 6.024 0 00-7.28-4.46l-2.98.72c-7.989 1.932-12.906 9.967-10.99 17.96l3.45 14.36a15.845 15.845 0 005.34 8.62c.434.35.888.674 1.36.97a14.809 14.809 0 0011.37 1.84l2.97-.72a5.84 5.84 0 002.17-1.01 5.993 5.993 0 002.29-6.27z"
        transform="matrix(.3496 0 0 .3496 .323 0) translate(-174.731 -79.585)"
      ></path>
      <path
        fill="#3F3D56"
        d="M376.129 274.523c0-3.866 1.12-7 2.5-7s2.5 3.134 2.5 7-1.12 7-2.5 7-2.5-3.134-2.5-7"
        transform="matrix(.3496 0 0 .3496 .323 0) rotate(-13.531 -44.177 971.198)"
      ></path>
      <path
        fill="#3F3D56"
        d="M366.129 277.523c0-3.866 1.12-7 2.5-7s2.5 3.134 2.5 7-1.12 7-2.5 7-2.5-3.134-2.5-7"
        transform="matrix(.3496 0 0 .3496 .323 0) rotate(-13.531 -54.177 974.198)"
      ></path>
      <path
        fill="#FFF"
        d="M396.899 287.165l-7.7-32.01a6.532 6.532 0 00-5.29-4.92l10.51 43.72a6.511 6.511 0 002.48-6.79z"
        transform="matrix(.3496 0 0 .3496 .323 0) translate(-174.731 -79.585)"
      ></path>
      <path
        fill="#3F3D56"
        d="M369.199 263.155a6.476 6.476 0 00-1.17-2.45 14.726 14.726 0 00-.57 8.79l3.45 14.36a15.845 15.845 0 005.34 8.62l-7.05-29.32z"
        transform="matrix(.3496 0 0 .3496 .323 0) translate(-174.731 -79.585)"
      ></path>
    </svg>
  
